<?xml version="1.0" standalone="no"?>
<!DOCTYPE svg PUBLIC "-//W3C//DTD SVG 20010904//EN"
 "http://www.w3.org/TR/2001/REC-SVG-20010904/DTD/svg10.dtd">
<svg version="1.0" xmlns="http://www.w3.org/2000/svg"
 width="1024.000000pt" height="1536.000000pt" viewBox="0 0 1024.000000 1536.000000"
 preserveAspectRatio="xMidYMid meet">

<g transform="translate(0.000000,1536.000000) scale(0.100000,-0.100000)"
fill="#000000" stroke="none">
<path d="M2205 14393 c-493 -64 -909 -362 -1149 -824 -60 -114 -103 -235 -138
-387 l-23 -97 -3 -5105 c-2 -3699 0 -5133 8 -5205 32 -285 134 -557 291 -779
71 -100 227 -260 331 -339 205 -157 446 -256 700 -287 68 -8 879 -10 2953 -8
l2860 3 100 23 c286 66 519 199 740 421 277 278 431 614 465 1011 8 87 10
1661 8 5180 l-3 5055 -27 120 c-34 150 -66 245 -122 360 -218 446 -637 762
-1121 845 -115 20 -155 20 -2978 19 -1574 -1 -2875 -4 -2892 -6z m5815 -345
c282 -71 439 -157 621 -338 190 -188 301 -394 356 -660 16 -80 17 -329 20
-4242 l3 -4158 -198 0 -199 0 -7 78 c-8 95 -48 321 -81 462 -125 518 -379
1017 -733 1440 -106 127 -364 376 -493 476 -347 271 -684 451 -1089 584 -144
48 -347 99 -431 108 l-64 8 60 18 c205 62 485 244 665 432 360 377 540 855
516 1369 -22 494 -206 910 -547 1240 -283 274 -604 437 -1004 512 -127 23
-398 28 -541 9 -560 -74 -1048 -388 -1345 -866 -108 -175 -199 -414 -235 -620
-27 -148 -27 -572 -1 -705 69 -351 224 -657 463 -914 176 -189 442 -369 661
-446 74 -26 73 -27 -37 -45 -216 -36 -561 -155 -835 -290 -560 -276 -997 -658
-1346 -1177 -219 -325 -365 -649 -482 -1073 -35 -124 -97 -484 -97 -559 l0
-39 -192 -4 c-106 -2 -196 -2 -200 0 -13 5 -10 8158 3 8292 19 208 71 376 166
535 159 265 434 474 723 550 168 44 81 43 3030 41 2561 -2 2811 -3 2870 -18z
m-2695 -3003 c242 -35 477 -129 679 -273 109 -77 267 -236 350 -352 294 -411
357 -955 167 -1441 -180 -459 -598 -813 -1082 -913 -429 -88 -854 -6 -1188
232 -123 87 -266 224 -346 331 -132 175 -237 423 -276 650 -23 132 -27 369 -9
491 26 185 84 367 157 500 233 421 632 700 1108 774 119 19 316 19 440 1z m40
-3545 c767 -58 1419 -346 1954 -865 432 -420 728 -931 877 -1516 32 -126 84
-405 84 -450 0 -19 -53 -19 -3161 -21 l-3161 -3 6 65 c20 199 87 492 162 712
229 667 711 1263 1323 1632 567 343 1227 497 1916 446z m3642 -3942 l-3 -743
-27 -120 c-30 -135 -55 -210 -103 -306 -87 -175 -258 -381 -396 -477 -140 -96
-268 -151 -458 -195 l-95 -21 -2725 -4 c-1927 -2 -2757 0 -2835 8 -317 32
-563 147 -770 362 -176 181 -279 377 -338 638 -21 92 -21 121 -25 848 l-3 752
3891 0 3891 0 -4 -742z"/>
<path d="M4970 13314 c-196 -52 -358 -219 -405 -415 -19 -80 -19 -225 0 -304
49 -203 229 -376 433 -416 95 -18 242 -7 325 24 133 51 250 157 312 284 82
168 70 398 -30 568 -67 115 -215 224 -351 260 -72 19 -211 18 -284 -1z m219
-330 c45 -8 106 -58 136 -109 72 -121 26 -283 -99 -347 -60 -31 -157 -30 -216
2 -152 85 -172 311 -35 416 20 15 57 33 83 40 44 12 61 12 131 -2z"/>
</g>
</svg>
