<?xml version="1.0" standalone="no"?>
<!DOCTYPE svg PUBLIC "-//W3C//DTD SVG 20010904//EN"
 "http://www.w3.org/TR/2001/REC-SVG-20010904/DTD/svg10.dtd">
<svg version="1.0" xmlns="http://www.w3.org/2000/svg"
 width="1024.000000pt" height="1024.000000pt" viewBox="0 0 1024.000000 1024.000000"
 preserveAspectRatio="xMidYMid meet">

<g transform="translate(0.000000,1024.000000) scale(0.100000,-0.100000)"
fill="#E59500" stroke="none">
<path d="M3033 9811 c-187 -54 -328 -220 -353 -416 -6 -45 -10 -284 -10 -545
l1 -465 -28 -3 c-119 -14 -298 -84 -414 -163 -192 -130 -345 -364 -382 -586
l-13 -78 -545 -5 c-537 -5 -545 -5 -600 -28 -150 -61 -256 -185 -294 -344 -17
-73 -19 -192 -5 -269 25 -136 136 -282 257 -340 117 -56 150 -59 696 -59 l497
0 0 -365 0 -365 -518 0 c-561 0 -576 -1 -684 -56 -69 -35 -168 -135 -201 -204
-77 -160 -77 -363 1 -520 34 -69 123 -160 187 -193 114 -57 113 -57 687 -57
l528 0 0 -365 0 -365 -510 0 c-333 0 -527 -4 -562 -11 -144 -30 -270 -129
-333 -261 -45 -95 -59 -170 -52 -288 13 -225 115 -365 330 -453 50 -21 68 -22
586 -27 l534 -5 4 -30 c7 -63 37 -163 73 -241 130 -282 362 -471 662 -538 l97
-22 3 -509 3 -510 26 -71 c84 -230 285 -359 532 -341 185 13 324 95 412 242
75 125 75 126 75 691 l0 504 440 0 440 0 0 -507 c0 -556 1 -560 60 -672 126
-235 446 -328 707 -205 75 36 172 129 213 205 59 112 60 116 60 672 l0 507
440 0 440 0 0 -506 0 -505 25 -74 c62 -185 191 -302 378 -342 138 -29 299 -2
409 68 61 39 142 128 174 190 52 104 54 124 54 664 l0 502 68 12 c297 54 552
242 681 500 41 82 76 182 86 246 14 83 -44 75 520 75 329 0 522 4 557 11 131
27 267 126 326 237 45 84 62 160 62 277 0 163 -41 268 -144 371 -34 34 -85 73
-114 88 -108 55 -123 56 -684 56 l-518 0 2 363 3 362 545 5 c543 5 545 5 603
28 127 52 247 176 282 295 77 258 1 499 -199 629 -121 78 -121 78 -712 78
l-524 0 0 364 0 365 533 3 c524 4 533 4 596 26 156 56 264 167 311 320 25 80
27 240 5 327 -36 138 -138 259 -272 323 l-78 37 -544 5 -545 5 -12 75 c-28
162 -111 323 -238 457 -138 147 -308 243 -497 281 l-94 19 -5 529 c-5 513 -6
531 -27 581 -35 86 -67 135 -130 194 -101 97 -212 139 -363 139 -47 0 -112 -7
-145 -15 -132 -35 -252 -127 -312 -241 -62 -116 -63 -127 -63 -681 l0 -503
-440 0 -440 0 0 503 c0 419 -3 513 -15 562 -46 176 -204 327 -383 364 -292 61
-560 -97 -632 -374 -6 -25 -10 -230 -10 -547 l0 -508 -440 0 -439 0 -3 528 -3
527 -28 65 c-63 151 -193 264 -352 306 -71 19 -226 17 -302 -5z m304 -237 c56
-27 101 -71 135 -137 23 -42 23 -45 26 -544 l3 -503 -301 0 -300 0 0 503 0
502 24 50 c24 53 89 119 134 136 84 33 201 30 279 -7z m1893 15 c62 -16 125
-71 159 -140 l31 -62 0 -499 0 -498 -300 0 -300 0 0 488 c0 300 4 501 10 524
16 58 71 130 122 161 69 43 175 53 278 26z m1937 -5 c51 -19 121 -84 148 -139
19 -38 20 -65 23 -547 l3 -508 -301 0 -300 0 0 488 c0 545 1 555 66 630 46 55
103 84 179 91 77 8 129 4 182 -15z m441 -1430 c276 -57 495 -264 557 -528 12
-52 15 -395 15 -2364 1 -2587 8 -2350 -78 -2516 -80 -156 -227 -279 -410 -344
l-77 -27 -2473 -3 c-2758 -2 -2532 -8 -2688 69 -148 73 -265 190 -334 334 -64
134 -60 -37 -60 2482 0 2557 -5 2366 71 2520 71 144 213 274 366 336 55 22 86
31 188 51 11 2 1106 4 2433 5 2170 1 2421 -1 2490 -15z m-5768 -1119 l0 -295
-498 0 c-551 0 -563 1 -644 63 -60 46 -92 114 -96 203 -6 108 17 174 81 239
86 86 68 83 650 84 l507 1 0 -295z m7613 279 c61 -21 132 -84 163 -147 22 -42
26 -64 26 -132 0 -87 -14 -135 -58 -192 -29 -38 -99 -82 -152 -94 -20 -4 -260
-9 -532 -9 l-495 -1 -3 296 -2 295 503 0 c432 0 510 -2 550 -16z m-7613 -2049
l0 -295 -517 0 c-499 0 -520 1 -563 21 -105 47 -152 123 -158 256 -4 81 -2 97
20 145 37 79 98 134 178 159 14 4 253 8 533 8 l507 1 0 -295z m7645 268 c103
-55 158 -152 159 -278 0 -95 -21 -151 -79 -210 -78 -77 -56 -75 -642 -75
l-523 0 0 295 0 296 523 -3 c514 -3 523 -3 562 -25z m-7645 -2033 l0 -301
-522 3 c-586 3 -560 0 -638 78 -61 61 -75 101 -75 215 0 93 2 104 31 155 38
66 86 107 156 131 49 17 95 18 551 19 l497 0 0 -300z m7609 283 c66 -21 134
-81 168 -147 22 -43 27 -65 27 -136 1 -74 -3 -93 -27 -142 -16 -32 -46 -73
-69 -92 -77 -66 -75 -66 -640 -66 l-508 0 0 300 0 300 499 0 c438 0 505 -2
550 -17z m-5949 -2121 c0 -552 1 -546 -76 -631 -61 -67 -122 -92 -229 -92
-125 -1 -205 42 -263 140 l-27 46 -3 513 -3 512 301 0 300 0 0 -488z m1918
-19 l-3 -508 -25 -48 c-49 -96 -136 -147 -253 -150 -134 -2 -227 45 -282 144
l-30 54 -3 508 -3 507 301 0 301 0 -3 -507z m1922 14 c0 -548 0 -548 -66 -625
-19 -23 -59 -53 -89 -68 -46 -22 -69 -27 -143 -27 -77 -1 -95 2 -145 26 -60
30 -95 65 -130 131 -22 40 -22 47 -25 549 l-3 507 301 0 300 0 0 -493z"/>
<path d="M2436 7581 c-22 -24 -25 -85 -7 -129 14 -33 35 -45 123 -67 35 -9 89
-30 120 -47 74 -39 191 -160 222 -230 13 -29 53 -118 89 -198 200 -446 463
-1051 752 -1735 51 -121 242 -569 423 -995 182 -426 339 -797 350 -825 11 -27
67 -160 124 -295 57 -135 117 -276 133 -314 35 -86 117 -178 179 -201 34 -13
69 -16 158 -13 l115 3 46 38 c26 21 58 57 71 80 14 23 77 166 140 317 63 151
153 365 201 475 48 110 118 274 157 365 269 635 374 881 552 1300 112 261 228
536 259 610 31 74 137 324 235 555 99 231 205 483 236 559 32 77 81 187 111
245 89 178 170 234 419 291 129 30 146 45 153 132 5 63 4 67 -21 83 -24 16
-44 16 -284 5 -254 -13 -992 -9 -1229 6 -99 7 -101 6 -127 -19 -40 -40 -36
-96 8 -135 19 -17 49 -33 68 -37 70 -15 341 -106 378 -126 41 -23 52 -42 71
-122 16 -64 6 -201 -21 -295 -20 -73 -234 -637 -375 -992 -120 -301 -388 -983
-450 -1145 -117 -305 -488 -1232 -512 -1280 -31 -62 -51 -85 -73 -85 -31 0
-63 69 -438 955 -77 182 -194 461 -260 620 -67 160 -182 436 -257 615 -505
1202 -550 1318 -595 1519 -26 117 -26 161 1 195 38 48 96 76 247 117 81 22
163 48 182 57 57 28 66 91 19 141 l-22 23 -261 -8 c-334 -11 -811 -11 -1136 0
-252 8 -255 8 -274 -13z"
 style = "fill:#E59500;stroke:none;fill-opacity:1" />

 
</g>
</svg>
